<svg width="5" height="15" viewBox="0 0 5 15" fill="none" xmlns="http://www.w3.org/2000/svg">
    <path d="M2.40007 10.7333C2.84209 10.7333 3.26602 10.9089 3.57858 11.2215C3.89114 11.5341 4.06673 11.958 4.06673 12.4C4.06673 12.842 3.89114 13.266 3.57858 13.5785C3.26602 13.8911 2.84209 14.0667 2.40007 14.0667C1.95804 14.0667 1.53411 13.8911 1.22155 13.5785C0.908993 13.266 0.733398 12.842 0.733398 12.4C0.733398 11.958 0.908993 11.5341 1.22155 11.2215C1.53411 10.9089 1.95804 10.7333 2.40007 10.7333ZM2.40007 5.73334C2.84209 5.73334 3.26602 5.90893 3.57858 6.22149C3.89114 6.53405 4.06673 6.95798 4.06673 7.4C4.06673 7.84203 3.89114 8.26595 3.57858 8.57852C3.26602 8.89108 2.84209 9.06667 2.40007 9.06667C1.95804 9.06667 1.53411 8.89108 1.22155 8.57852C0.908993 8.26595 0.733398 7.84203 0.733398 7.4C0.733398 6.95798 0.908993 6.53405 1.22155 6.22149C1.53411 5.90893 1.95804 5.73334 2.40007 5.73334ZM2.40007 0.733337C2.84209 0.733337 3.26602 0.908932 3.57858 1.22149C3.89114 1.53405 4.06673 1.95798 4.06673 2.4C4.06673 2.84203 3.89114 3.26595 3.57858 3.57852C3.26602 3.89108 2.84209 4.06667 2.40007 4.06667C1.95804 4.06667 1.53411 3.89108 1.22155 3.57852C0.908993 3.26595 0.733398 2.84203 0.733398 2.4C0.733398 1.95798 0.908993 1.53405 1.22155 1.22149C1.53411 0.908932 1.95804 0.733337 2.40007 0.733337Z" fill="#303234"/>
</svg>
